#!OML:ASF F:\VICON\USERDATA\INSTALL\rory3\rory3.ASF
:FULLY-SPECIFIED
:DEGREES
3781
root -13.6825 17.8919 15.0254 -163.671 97.4714 -528.198
lowerback 9.75123 -1.32617 1.2028
upperback 2.1518 -1.36896 4.04669
thorax -3.15762 -0.629876 3.69839
lowerneck -1.83644 -10.1163 -11.8692
upperneck 40.8023 -13.104 5.84229
head 16.2481 -5.97268 2.96444
rclavicle -1.63003e-014 -3.49861e-014
rhumerus -33.3948 -17.4284 -71.4747
rradius 36.9503
rwrist 3.12532
rhand -16.5996 7.02751
rfingers 7.12502
rthumb 9.62171 -22.7328
lclavicle -1.63003e-014 -3.49861e-014
lhumerus -37.815 1.2845 88.5045
lradius 40.6
lwrist -4.14427
lhand -14.8888 25.3754
lfingers 7.12502
lthumb 11.272 55.0525
rfemur -15.0993 0.645706 19.6055
rtibia 30.619
rfoot -17.7524 6.9923
rtoes -1.87175
lfemur -14.4319 -2.33903 -24.1926
ltibia 27.3859
lfoot -15.0846 2.46524
ltoes 4.53585
3782
root -13.6917 17.8943 15.0362 -163.047 97.1093 -527.551
lowerback 9.7733 -1.38039 1.24256
upperback 2.08795 -1.43263 4.07006
thorax -3.23323 -0.660963 3.71038
lowerneck -1.9427 -10.0848 -11.7548
upperneck 40.8981 -13.1405 6.05649
head 16.3398 -5.93739 3.03423
rclavicle 0 -7.95139e-015
rhumerus -33.4669 -17.3902 -71.3868
rradius 37.0437
rwrist 3.11672
rhand -16.5541 6.9998
rfingers 7.12502
rthumb 9.6656 -22.7584
lclavicle 0 -7.95139e-015
lhumerus -37.5954 1.0628 88.5776
lradius 40.7365
lwrist -3.9794
lhand -14.8913 25.3778
lfingers 7.12502
lthumb 11.2696 55.0551
rfemur -15.1061 0.621825 19.7302
rtibia 30.7169
rfoot -17.4304 6.67517
rtoes 0.81334
lfemur -14.4433 -1.81147 -24.2189
ltibia 27.4409
lfoot -15.0517 3.10719
ltoes 3.83321
3783
root -13.6991 17.8947 15.0515 -162.589 96.7999 -527.032
lowerback 9.76618 -1.39633 1.23356
upperback 2.08609 -1.45521 4.05956
thorax -3.23002 -0.672109 3.70701
lowerneck -2.11545 -10.102 -11.5212
upperneck 40.9709 -13.2298 6.16408
head 16.4177 -5.91877 3.02383
rclavicle 2.10712e-014 1.90833e-014
rhumerus -33.4734 -17.4567 -71.3825
rradius 37.0542
rwrist 3.05672
rhand -16.8035 7.03223
rfingers 7.12502
rthumb 9.42498 -22.737
lclavicle 2.10712e-014 1.90833e-014
lhumerus -37.2758 1.00528 88.4917
lradius 40.7991
lwrist -4.03238
lhand -14.8745 25.3088
lfingers 7.12502
lthumb 11.2858 54.9852
rfemur -15.0437 0.808881 19.8871
rtibia 30.7884
rfoot -17.2794 6.07408
rtoes 2.91394
lfemur -14.3895 -1.24244 -24.1829
ltibia 27.5482
lfoot -15.0092 3.61956
ltoes 4.51275
3784
root -13.7036 17.8997 15.0777 -162.208 96.4629 -526.595
lowerback 9.72664 -1.4541 1.06047
upperback 2.08193 -1.54463 4.16828
thorax -3.19971 -0.714301 3.92894
lowerneck -2.23915 -10.1063 -11.5612
upperneck 40.9573 -13.2152 6.1384
head 16.4394 -5.91866 3.01487
rclavicle -1.43125e-014 -9.54166e-015
rhumerus -33.3828 -17.2176 -71.3622
rradius 37.0291
rwrist 2.87467
rhand -16.888 7.12035
rfingers 7.12502
rthumb 9.34345 -22.6526
lclavicle -1.43125e-014 -9.54166e-015
lhumerus -36.9971 1.24035 88.4107
lradius 40.8813
lwrist -4.22833
lhand -14.5714 25.2321
lfingers 7.12502
lthumb 11.5781 54.8923
rfemur -14.9444 1.31429 20.1063
rtibia 30.8206
rfoot -17.2131 5.00239
rtoes 2.90012
lfemur -14.3221 -0.583423 -24.0682
ltibia 27.7489
lfoot -15.0042 4.13886
ltoes 4.52673
3785
root -13.7068 17.9038 15.1049 -161.293 96.0905 -525.587
lowerback 9.72959 -1.57495 0.81356
upperback 2.07085 -1.72118 4.31406
thorax -3.19009 -0.79869 4.24414
lowerneck -2.24872 -10.0279 -12.0045
upperneck 40.8411 -13.1223 6.38867
head 16.4411 -5.92092 3.21173
rclavicle -5.56597e-015 -1.27222e-014
rhumerus -33.2418 -16.7853 -71.3455
rradius 36.9497
rwrist 2.73127
rhand -16.9324 7.31712
rfingers 7.12502
rthumb 9.3006 -22.4577
lclavicle -5.56597e-015 -1.27222e-014
lhumerus -36.807 1.55012 88.3776
lradius 41.0814
lwrist -4.40251
lhand -14.5715 25.3449
lfingers 7.12502
lthumb 11.578 55.0051
rfemur -14.7922 1.73724 20.2794
rtibia 30.8151
rfoot -17.0923 3.9681
rtoes 1.91984
lfemur -14.254 -0.0987871 -24.0128
ltibia 28.0499
lfoot -15.0493 4.92406
ltoes 4.16864
3786
root -13.7149 17.9013 15.125 -159.038 95.6584 -523.213
lowerback 9.81918 -1.70549 0.579111
upperback 2.0627 -1.911 4.37871
thorax -3.22516 -0.890053 4.47214
lowerneck -2.36003 -9.95922 -12.2882
upperneck 40.779 -13.067 6.65432
head 16.4851 -5.90902 3.38067
rclavicle -1.82882e-014 1.11319e-014
rhumerus -33.0729 -16.6108 -71.3254
rradius 36.7999
rwrist 2.91949
rhand -16.9538 7.3389
rfingers 7.12502
rthumb 9.27993 -22.4369
lclavicle -1.82882e-014 1.11319e-014
lhumerus -36.6231 1.66317 88.3721
lradius 41.3721
lwrist -4.34968
lhand -14.7005 25.462
lfingers 7.12502
lthumb 11.4536 55.1291
rfemur -14.6518 1.74319 20.3295
rtibia 30.7924
rfoot -16.8642 3.25055
rtoes 1.79237
lfemur -14.2224 0.266419 -24.1029
ltibia 28.4244
lfoot -14.969 5.78935
ltoes 4.10199
3787
root -13.7226 17.8979 15.143 -157.088 95.1302 -521.197
lowerback 9.84765 -1.78755 0.512786
upperback 2.04915 -2.02267 4.41265
thorax -3.24326 -0.944103 4.56078
lowerneck -2.58285 -9.98734 -12.2279
upperneck 40.862 -13.1312 6.73629
head 16.5965 -5.90767 3.38994
rclavicle -3.4191e-014 1.90833e-014
rhumerus -33.0156 -16.8347 -71.2431
rradius 36.6623
rwrist 3.19893
rhand -17.0321 7.23509
rfingers 7.12502
rthumb 9.20438 -22.544
lclavicle -3.4191e-014 1.90833e-014
lhumerus -36.3971 1.4295 88.4003
lradius 41.6526
lwrist -4.11275
lhand -14.7726 25.5432
lfingers 7.12502
lthumb 11.3841 55.2142
rfemur -14.5502 1.6014 20.4781
rtibia 30.7645
rfoot -16.6822 2.60682
rtoes 1.81151
lfemur -14.2644 0.850904 -24.1136
ltibia 28.8746
lfoot -14.7895 6.39433
ltoes 3.58927
3788
root -13.7285 17.9041 15.1634 -154.787 94.5572 -518.841
lowerback 9.85457 -1.81781 0.488056
upperback 2.02118 -2.06571 4.38694
thorax -3.27309 -0.965019 4.55405
lowerneck -2.72234 -10.0828 -11.9003
upperneck 40.8795 -13.3074 6.71329
head 16.6256 -5.92697 3.28998
rclavicle 3.61788e-014 -6.99722e-014
rhumerus -33.1317 -17.1871 -71.1952
rradius 36.585
rwrist 3.26748
rhand -17.0238 7.14209
rfingers 7.12502
rthumb 9.21233 -22.6367
lclavicle 3.61788e-014 -6.99722e-014
lhumerus -36.1921 0.984283 88.3548
lradius 41.9538
lwrist -3.93937
lhand -15.9306 25.9509
lfingers 7.12502
lthumb 10.2672 55.6804
rfemur -14.4309 1.56688 20.6536
rtibia 30.7571
rfoot -16.5775 1.83611
rtoes 1.04906
lfemur -14.3079 1.33253 -24.0785
ltibia 29.3951
lfoot -14.8098 6.91562
ltoes 3.44432
3789
root -13.736 17.9104 15.1813 -150.447 93.9733 -514.449
lowerback 9.84777 -1.78984 0.52137
upperback 1.98373 -2.03179 4.26626
thorax -3.31657 -0.949206 4.40454
lowerneck -2.72568 -10.2302 -11.5396
upperneck 40.751 -13.5891 6.73431
head 16.5557 -5.98623 3.1882
rclavicle -1.98785e-015 9.54166e-015
rhumerus -33.3338 -17.708 -71.1513
rradius 36.4699
rwrist 3.34626
rhand -17.0208 6.99831
rfingers 7.12502
rthumb 9.21527 -22.7803
lclavicle -1.98785e-015 9.54166e-015
lhumerus -35.9276 0.342581 88.2795
lradius 42.2369
lwrist -3.87832
lhand -17.8445 26.6681
lfingers 7.12502
lthumb 8.4204 56.4802
rfemur -14.3352 1.59497 20.7176
rtibia 30.776
rfoot -16.4971 1.05602
rtoes 1.07444
lfemur -14.3794 1.9012 -24.1339
ltibia 29.9525
lfoot -14.8728 7.43646
ltoes 2.28989
3790
root -13.7414 17.9109 15.1932 -144.052 93.3544 -507.987
lowerback 9.7909 -1.915 0.59003
upperback 1.97126 -2.19349 4.23137
thorax -3.29055 -1.03042 4.3464
lowerneck -2.8261 -10.2154 -11.4312
upperneck 40.656 -13.5804 6.74956
head 16.5136 -5.96244 3.17167
rclavicle -8.74653e-015 -2.54444e-014
rhumerus -33.3381 -17.7029 -71.1873
rradius 36.3154
rwrist 3.35401
rhand -17.1022 6.82942
rfingers 7.12502
rthumb 9.13673 -22.9527
lclavicle -8.74653e-015 -2.54444e-014
lhumerus -35.6753 0.258425 88.1631
lradius 42.5699
lwrist -3.8166
lhand -18.5875 27.1192
lfingers 7.12502
lthumb 7.70331 56.9589
rfemur -14.2342 1.19377 20.7648
rtibia 30.8094
rfoot -16.4958 0.631432
rtoes 1.28074
lfemur -14.4129 2.35669 -24.2195
ltibia 30.5518
lfoot -14.7876 8.22595
ltoes 0.875318
